<?xml version="1.0" encoding="UTF-8" standalone="no"?>
<svg
   xmlns:dc="http://purl.org/dc/elements/1.1/"
   xmlns:cc="http://creativecommons.org/ns#"
   xmlns:rdf="http://www.w3.org/1999/02/22-rdf-syntax-ns#"
   xmlns:svg="http://www.w3.org/2000/svg"
   xmlns="http://www.w3.org/2000/svg"
   xmlns:sodipodi="http://sodipodi.sourceforge.net/DTD/sodipodi-0.dtd"
   xmlns:inkscape="http://www.inkscape.org/namespaces/inkscape"
   id="Layer_1"
   data-name="Layer 1"
   viewBox="0 0 969 534.67999"
   version="1.1"
   sodipodi:docname="Text.svg"
   width="969"
   height="534.67999"
   inkscape:version="0.92.4 5da689c313, 2019-01-14">
  <metadata
     id="metadata101">
    <rdf:RDF>
      <cc:Work
         rdf:about="">
        <dc:format>image/svg+xml</dc:format>
        <dc:type
           rdf:resource="http://purl.org/dc/dcmitype/StillImage" />
        <dc:title>Artboard 1</dc:title>
      </cc:Work>
    </rdf:RDF>
  </metadata>
  <sodipodi:namedview
     pagecolor="#ffffff"
     bordercolor="#666666"
     borderopacity="1"
     objecttolerance="10"
     gridtolerance="10"
     guidetolerance="10"
     inkscape:pageopacity="0"
     inkscape:pageshadow="2"
     inkscape:window-width="3200"
     inkscape:window-height="1756"
     id="namedview99"
     showgrid="false"
     fit-margin-top="0"
     fit-margin-left="0"
     fit-margin-right="0"
     fit-margin-bottom="0"
     inkscape:zoom="1.3239149"
     inkscape:cx="494"
     inkscape:cy="330.48"
     inkscape:window-x="0"
     inkscape:window-y="0"
     inkscape:window-maximized="1"
     inkscape:current-layer="Layer_1" />
  <defs
     id="defs4">
    <style
       id="style2">.cls-1{fill:#15443b;}.cls-2{fill:#fff;}.cls-3{fill:none;stroke:#346375;stroke-miterlimit:10;stroke-width:10px;}</style>
  </defs>
  <title
     id="title6">Artboard 1</title>
  <path
     class="cls-1"
     d="m 92.29,42.41 c 0,-22.1 13.94,-36.89 34.41,-36.89 12.9,0 22.35,3.82 27.8,12.38 2.58,4 0.89,7 -3.76,8.1 l -2.28,0.54 c -3.59,0.85 -5.93,-0.33 -8.19,-2.6 a 17.31,17.31 0 0 0 -13.11,-5.21 c -11.44,0 -19,9.4 -19,23.84 0,14.65 7.3,23.72 18.91,23.72 9.95,0 16.49,-5.67 17.16,-16.59 h -12.04 c -4,0 -6.29,-2.2 -6.29,-6.13 v -0.1 c 0,-3.83 2.43,-6 6.66,-6 h 21.38 c 4.23,0 6.72,1.23 6.72,4.73 v 1.47 C 160.66,66 147.6,79.5 126.4,79.5 105.63,79.54 92.29,65.01 92.29,42.41 Z"
     id="path8"
     inkscape:connector-curvature="0"
     style="fill:#15443b" />
  <path
     class="cls-1"
     d="m 169.93,50.2 c 0,-17.6 12,-29.53 29.33,-29.53 16.63,0 27.26,10.2 28.3,26.33 0.29,4.43 -2.07,6.66 -6.66,6.66 h -35.79 c 0.27,9.38 6,14.81 15.31,14.81 a 17,17 0 0 0 11.82,-4.09 c 2.49,-2.05 4,-3.41 7.48,-2.57 l 1.38,0.33 c 4.56,1.11 5.33,3.66 2.46,7.29 -4.85,6.61 -13,10.3 -23.83,10.3 -18.04,0.01 -29.8,-11.59 -29.8,-29.53 z m 43.61,-6.47 c -0.6,-7.64 -5.81,-12.51 -13.92,-12.51 -7.77,0 -13.31,4.34 -14.24,12.51 z"
     id="path10"
     inkscape:connector-curvature="0"
     style="fill:#15443b" />
  <path
     class="cls-1"
     d="M 239.39,56.01 V 33.1 H 237 c -3.6,0 -5.59,-2.2 -5.59,-5.8 0,-3.6 1.86,-5.69 5.12,-5.69 h 2.91 V 17 c 0,-4 1.86,-6.06 6.2,-7 l 1.77,-0.38 c 5.1,-1.09 7.32,0.92 7.32,5.69 v 6.29 h 9 c 4.63,0 6.66,2 6.66,5.69 0,3.69 -2,5.8 -6.66,5.8 h -9 v 21.54 c 0,9.46 2.76,12.89 9.86,13.15 3.6,0.12 5.92,1.7 6.11,5.14 0.21,3.75 -1.5,6.19 -5.73,6.61 a 28.48,28.48 0 0 1 -2.86,0.14 c -15.58,0.01 -22.72,-6.23 -22.72,-23.66 z"
     id="path12"
     inkscape:connector-curvature="0"
     style="fill:#15443b" />
  <path
     class="cls-1"
     d="m 357.22,78.81 h -3 c -3.73,0 -5.93,-1.7 -7.79,-4.86 L 335.85,55.63 c -1.1,0.05 -2.23,0.07 -3.41,0.07 h -8.34 v 16.5 c 0,4.3 -2.36,6.66 -6.66,6.66 h -2.6 c -4.29,0 -6.66,-2.36 -6.66,-6.66 V 13.07 c 0,-4.3 2.37,-6.66 6.66,-6.66 h 17.9 c 23.47,0 31.67,7.82 31.67,24.33 0,10.44 -4.28,18.07 -13.79,22 l 11.12,18.13 c 3.2,5.13 1.81,7.94 -4.52,7.94 z m -8.68,-47 c 0,-9 -5,-12.07 -16.16,-12.07 H 324 v 24.05 h 8.34 c 11.19,-0.01 16.2,-2.94 16.2,-11.99 z"
     id="path14"
     inkscape:connector-curvature="0"
     style="fill:#15443b" />
  <path
     class="cls-1"
     d="m 371.72,50.2 c 0,-17.6 12,-29.53 29.34,-29.53 16.63,0 27.26,10.2 28.3,26.33 0.29,4.43 -2.07,6.66 -6.66,6.66 h -35.79 c 0.26,9.38 6,14.81 15.31,14.81 A 17,17 0 0 0 414,64.39 c 2.49,-2.05 4,-3.41 7.48,-2.57 l 1.37,0.33 c 4.57,1.11 5.34,3.66 2.47,7.29 -4.86,6.61 -13.05,10.3 -23.84,10.3 -17.99,0 -29.76,-11.6 -29.76,-29.54 z m 43.61,-6.47 c -0.6,-7.64 -5.8,-12.51 -13.91,-12.51 -7.77,0 -13.31,4.34 -14.25,12.51 z"
     id="path16"
     inkscape:connector-curvature="0"
     style="fill:#15443b" />
  <path
     class="cls-1"
     d="m 438.22,50.2 c 0,-19.21 10.74,-29.53 25,-29.53 8,0 15.64,4 18.6,11 v -4.2 c 0,-3.7 2.44,-5.83 6.67,-5.83 h 1.86 c 4.3,0 6.66,2.36 6.66,6.66 v 43.78 c 0,4.3 -2.36,6.66 -6.66,6.66 h -1.85 c -4.2,0 -6.67,-2.1 -6.67,-5.7 V 69.1 c -2.9,6.81 -10.6,10.77 -18.54,10.77 -14.23,0 -25.07,-10.43 -25.07,-29.67 z m 44.08,0 c 0,-10.54 -5.87,-17.11 -14.51,-17.11 -8.64,0 -14.42,6.51 -14.42,17.11 0,10.6 5.84,17.22 14.55,17.22 8.71,0 14.38,-6.6 14.38,-17.22 z"
     id="path18"
     inkscape:connector-curvature="0"
     style="fill:#15443b" />
  <path
     class="cls-1"
     d="m 508.12,50.2 c 0,-19.21 10.74,-29.53 25,-29.53 8,0 15.7,4 18.6,11 v -22 c 0,-4.3 2.37,-6.67 6.67,-6.67 h 1.86 c 4.3,0 6.66,2.37 6.66,6.67 v 62.38 c 0,4.3 -2.36,6.66 -6.66,6.66 h -1.86 c -4.2,0 -6.67,-2.1 -6.67,-5.7 V 69.1 c -2.9,6.81 -10.6,10.77 -18.54,10.77 -14.18,0 -25.06,-10.43 -25.06,-29.67 z m 44.08,0 c 0,-10.54 -5.8,-17.11 -14.51,-17.11 -8.55,0 -14.42,6.54 -14.42,17.11 0,10.57 5.84,17.22 14.55,17.22 8.71,0 14.38,-6.6 14.38,-17.22 z"
     id="path20"
     inkscape:connector-curvature="0"
     style="fill:#15443b" />
  <path
     class="cls-1"
     d="m 592.1,90.33 5.08,-11.79 -20.57,-49.23 c -1.9,-4.56 0.23,-7.67 5.09,-7.67 h 2.7 c 3.83,0 6.26,1.82 7.61,5.41 L 605.3,62.2 618.56,27.06 c 1.36,-3.59 3.79,-5.41 7.62,-5.41 h 2.56 c 5,0 7.14,3.13 5.26,7.67 L 608,92.2 c -1.49,3.59 -4,5.14 -7.79,5.14 h -2.8 c -4.94,-0.03 -7.09,-2.87 -5.31,-7.01 z"
     id="path22"
     inkscape:connector-curvature="0"
     style="fill:#15443b" />
  <path
     class="cls-1"
     d="m 681.34,78.81 c -4.29,0 -6.66,-2.36 -6.66,-6.66 V 33.06 h -2.4 c -3.68,0 -6,-2.18 -6,-5.79 0,-3.61 2.39,-5.7 6,-5.7 h 2.39 v -2 C 674.67,6.57 682,0 696.4,0 c 1.47,0 3.11,0.07 4.6,0.22 4.54,0.44 6.34,2.58 5.83,6.08 -0.51,3.5 -2.06,5.13 -5.36,5 -0.91,0 -1.52,-0.07 -2.34,-0.07 -6,0 -9.11,2.7 -9.11,8.48 v 1.86 h 8.51 c 4.3,0 6.67,2 6.67,5.7 0,3.7 -2.37,5.79 -6.67,5.79 H 690 V 72.2 c 0,4.3 -2.36,6.66 -6.66,6.66 z"
     id="path24"
     inkscape:connector-curvature="0"
     style="fill:#15443b" />
  <path
     class="cls-1"
     d="m 708.82,50.2 c 0,-20.6 14.63,-29.53 29.56,-29.53 14.93,0 29.62,8.94 29.62,29.53 0,20.8 -14.57,29.66 -29.57,29.66 -15,0 -29.61,-8.85 -29.61,-29.66 z m 44,0 c 0,-10.7 -5.94,-17.11 -14.45,-17.11 -8.51,0 -14.42,6.34 -14.42,17.11 0,10.77 5.94,17.22 14.49,17.22 8.55,0 14.36,-6.4 14.36,-17.22 z"
     id="path26"
     inkscape:connector-curvature="0"
     style="fill:#15443b" />
  <path
     class="cls-1"
     d="M 812.48,27.89 812.35,29 c -0.46,4.12 -2.83,5.31 -7,6 -7.56,1.29 -11.48,6.34 -11.48,16.81 V 72.2 c 0,4.29 -2.37,6.66 -6.66,6.66 h -1.86 c -4.3,0 -6.67,-2.37 -6.67,-6.66 V 28.27 c 0,-4.3 2.37,-6.67 6.67,-6.67 h 1.86 c 4.29,0 6.66,2 6.66,6.13 v 2.54 a 13.62,13.62 0 0 1 13.2,-9.25 c 4.1,0 5.93,2.55 5.41,6.87 z"
     id="path28"
     inkscape:connector-curvature="0"
     style="fill:#15443b" />
  <path
     class="cls-1"
     d="m 808.91,71.88 c 0,-5 3.63,-7.66 8.66,-7.66 4.67,0 8.66,2.7 8.66,7.66 0,4.96 -4,7.66 -8.66,7.66 -5.03,0 -8.66,-2.66 -8.66,-7.66 z"
     id="path30"
     inkscape:connector-curvature="0"
     style="fill:#15443b" />
  <path
     class="cls-1"
     d="m 834.21,71.88 c 0,-5 3.63,-7.66 8.66,-7.66 4.67,0 8.66,2.7 8.66,7.66 0,4.96 -4,7.66 -8.66,7.66 -5.03,0 -8.66,-2.66 -8.66,-7.66 z"
     id="path32"
     inkscape:connector-curvature="0"
     style="fill:#15443b" />
  <path
     class="cls-1"
     d="m 859.51,71.88 c 0,-5 3.63,-7.66 8.66,-7.66 4.66,0 8.66,2.7 8.66,7.66 0,4.96 -4,7.66 -8.66,7.66 -5.03,0 -8.66,-2.66 -8.66,-7.66 z"
     id="path34"
     inkscape:connector-curvature="0"
     style="fill:#15443b" />
  <path
     class="cls-1"
     d="m 82.31,122.8 c 9.5,0 14,3.5 14,11.1 a 24.22,24.22 0 0 1 -0.4,4.5 l -0.7,4 c -1.6,8.9 -3.7,13.7 -12.1,15.1 5.6,1.2 8.2,4.6 8.2,10.4 a 27.1,27.1 0 0 1 -0.4,4.7 l -0.8,4.6 c -1.9,10.7 -4.7,15.6 -19,15.6 H 18 c -1.5,0 -2.1,-0.8 -1.9,-2.1 l 11.6,-65.8 a 2.44,2.44 0 0 1 2.6,-2.1 z M 37,163.9 34.2,179.7 h 32 c 5.7,0 7.5,-1.4 8.4,-6.4 l 0.5,-3 a 10.57,10.57 0 0 0 0.2,-2.4 c 0,-3.1 -1.7,-4 -6.3,-4 z m 2.3,-12.8 h 30.9 c 5.7,0 7.5,-1.5 8.4,-6.4 l 0.4,-2.4 a 12.89,12.89 0 0 0 0.3,-2.5 c 0,-3 -1.7,-3.9 -6.3,-3.9 H 42 Z"
     id="path36"
     inkscape:connector-curvature="0"
     style="fill:#15443b" />
  <path
     class="cls-1"
     d="m 132.51,152.1 c -8.8,0 -13.5,4.5 -14.8,12.1 L 113,190.9 a 2.07,2.07 0 0 1 -2.3,1.9 h -10.6 c -1.39,0 -2,-0.7 -1.8,-1.9 l 8.61,-48.8 a 2.17,2.17 0 0 1 2.4,-1.9 h 8.9 c 1.3,0 1.9,0.7 1.7,1.9 l -1.3,7 c 2.5,-5.9 7.1,-8.9 16.9,-8.9 h 3.6 c 1.3,0 1.9,0.7 1.7,1.9 l -1.4,8.1 a 2.15,2.15 0 0 1 -2.4,1.9 z"
     id="path38"
     inkscape:connector-curvature="0"
     style="fill:#15443b" />
  <path
     class="cls-1"
     d="m 193.91,178.8 c 0,0.2 -0.1,0.4 -0.1,0.6 0,1 0.6,1.5 1.9,1.5 h 0.6 c 1.3,0 1.9,0.6 1.7,1.9 l -1.4,8.1 a 2.13,2.13 0 0 1 -2.3,1.9 h -6.9 c -5.6,0 -8.1,-2.2 -8.1,-6.3 v -1.3 c -2.5,5 -7,7.6 -15.7,7.6 h -12.4 c -8.31,0 -11.91,-2.5 -11.91,-9 a 23.68,23.68 0 0 1 0.4,-4.3 l 0.8,-4.7 c 1.8,-10.3 3.2,-13.3 16.11,-13.3 h 25.7 l 0.6,-3.3 a 13.81,13.81 0 0 0 0.3,-2.6 c 0,-2.9 -1.7,-3.6 -6.6,-3.6 h -12.4 c -2.5,0 -3.8,0.8 -4.2,3 a 2.17,2.17 0 0 1 -2.4,2 H 147.4 c -1.3,0 -1.9,-0.7 -1.7,-2 l 0.3,-1.4 c 1.6,-9.4 3.5,-13.4 16.31,-13.4 h 23.5 c 8.7,0 12.8,3.1 12.8,10.1 a 21.94,21.94 0 0 1 -0.4,4.2 z m -24.3,2.2 c 6.7,0 9.7,-2.6 10.7,-8.2 l 0.2,-1.6 h -20.6 c -2.7,0 -4.2,1 -4.7,3.6 l -0.41,2.6 a 5,5 0 0 0 -0.09,1.1 c 0,1.8 1.1,2.5 3.5,2.5 z"
     id="path40"
     inkscape:connector-curvature="0"
     style="fill:#15443b" />
  <path
     class="cls-1"
     d="m 214.6,142.1 a 2.17,2.17 0 0 1 2.4,-1.9 h 10.6 c 1.4,0 1.9,0.7 1.7,1.9 l -8.6,48.8 a 2.07,2.07 0 0 1 -2.3,1.9 h -10.6 c -1.4,0 -2,-0.7 -1.8,-1.9 z m 3.6,-20.1 a 2.06,2.06 0 0 1 2.3,-1.9 h 10.6 c 1.4,0 2,0.6 1.8,1.9 l -1.5,8.2 a 2.15,2.15 0 0 1 -2.4,1.9 h -10.6 c -1.4,0 -1.9,-0.6 -1.6,-1.9 z"
     id="path42"
     inkscape:connector-curvature="0"
     style="fill:#15443b" />
  <path
     class="cls-1"
     d="m 255,148.4 c 2.4,-5.4 6.9,-8.2 15.9,-8.2 h 10.91 c 8.7,0 12.8,3.1 12.8,10 a 22.92,22.92 0 0 1 -0.4,4.3 l -6.4,36.4 a 2.13,2.13 0 0 1 -2.3,1.9 h -10.6 c -1.31,0 -2,-0.7 -1.81,-1.9 l 5.71,-32.6 a 17.87,17.87 0 0 0 0.3,-2.8 c 0,-2.8 -1.61,-3.4 -6.4,-3.4 h -7.51 c -6.7,0 -9.7,2.7 -10.7,8.2 l -5.4,30.6 a 2.07,2.07 0 0 1 -2.3,1.9 h -10.6 c -1.4,0 -2,-0.7 -1.8,-1.9 l 8.6,-48.8 a 2.17,2.17 0 0 1 2.4,-1.9 h 8.9 c 1.4,0 2,0.7 1.8,1.9 z"
     id="path44"
     inkscape:connector-curvature="0"
     style="fill:#15443b" />
  <path
     class="cls-1"
     d="m 373.21,190.7 a 2.34,2.34 0 0 1 -2.5,2.1 h -11.8 c -1.4,0 -2.1,-0.8 -1.9,-2.1 l 4.8,-26.7 H 322.1 l -4.7,26.7 a 2.44,2.44 0 0 1 -2.6,2.1 h -11.7 c -1.5,0 -2.1,-0.8 -1.9,-2.1 l 11.6,-65.8 a 2.44,2.44 0 0 1 2.6,-2.1 h 11.7 c 1.4,0 2.2,0.8 1.9,2.1 l -4.6,26 h 39.71 l 4.5,-26 a 2.51,2.51 0 0 1 2.6,-2.1 H 383 c 1.4,0 2.1,0.8 1.8,2.1 z"
     id="path46"
     inkscape:connector-curvature="0"
     style="fill:#15443b" />
  <path
     class="cls-1"
     d="m 441,178.8 c 0,0.2 -0.09,0.4 -0.09,0.6 0,1 0.59,1.5 1.9,1.5 h 0.6 c 1.3,0 1.9,0.6 1.7,1.9 l -1.4,8.1 a 2.14,2.14 0 0 1 -2.3,1.9 h -6.91 c -5.6,0 -8.1,-2.2 -8.1,-6.3 v -1.3 c -2.5,5 -7,7.6 -15.7,7.6 h -12.4 c -8.3,0 -11.9,-2.5 -11.9,-9 a 23.68,23.68 0 0 1 0.4,-4.3 l 0.8,-4.7 c 1.8,-10.3 3.2,-13.3 16.1,-13.3 h 25.7 l 0.6,-3.3 a 13.81,13.81 0 0 0 0.3,-2.6 c 0,-2.9 -1.7,-3.6 -6.6,-3.6 h -12.4 c -2.5,0 -3.8,0.8 -4.2,3 a 2.17,2.17 0 0 1 -2.4,2 h -10.2 c -1.3,0 -1.9,-0.7 -1.7,-2 l 0.3,-1.4 c 1.6,-9.4 3.5,-13.4 16.3,-13.4 h 23.5 c 8.71,0 12.81,3.1 12.81,10.1 a 21.94,21.94 0 0 1 -0.4,4.2 z m -24.3,2.2 c 6.7,0 9.7,-2.6 10.7,-8.2 l 0.2,-1.6 H 407 c -2.7,0 -4.2,1 -4.7,3.6 l -0.4,2.6 a 4.48,4.48 0 0 0 -0.1,1.1 c 0,1.8 1.1,2.5 3.5,2.5 z"
     id="path48"
     inkscape:connector-curvature="0"
     style="fill:#15443b" />
  <path
     class="cls-1"
     d="m 458.2,154.5 c 1.7,-9.9 4,-14.3 17.4,-14.3 h 25.9 c 8.2,0 12,2.8 12,9.3 a 21,21 0 0 1 -0.4,4.1 l -0.7,3.8 a 2.13,2.13 0 0 1 -2.3,1.9 h -10.2 c -1.4,0 -1.9,-0.7 -1.7,-1.9 l 0.3,-1.9 a 3.08,3.08 0 0 0 0.1,-0.9 c 0,-1.7 -1.2,-2.5 -3.5,-2.5 h -14.5 c -6.2,0 -7.5,1 -8.5,6.2 l -2.8,16.4 a 16.74,16.74 0 0 0 -0.3,2.8 c 0,2.8 1.5,3.4 6.5,3.4 H 490 c 2.7,0 4.2,-1 4.7,-3.4 l 0.3,-1.9 a 2.07,2.07 0 0 1 2.3,-1.9 h 10.2 c 1.3,0 1.9,0.7 1.7,1.9 l -0.6,3.8 c -1.7,9.4 -3.5,13.4 -16.3,13.4 h -25.9 c -8.8,0 -12.8,-3.1 -12.8,-10 a 22.92,22.92 0 0 1 0.4,-4.3 z"
     id="path50"
     inkscape:connector-curvature="0"
     style="fill:#15443b" />
  <path
     class="cls-1"
     d="m 544.4,172 h -8.5 l -3.3,18.9 a 2.07,2.07 0 0 1 -2.3,1.9 h -10.6 c -1.4,0 -2,-0.7 -1.8,-1.9 l 12.4,-70.2 a 2.17,2.17 0 0 1 2.4,-1.9 h 10.6 c 1.4,0 1.9,0.7 1.7,1.9 l -7.1,40.1 h 6.9 l 20.1,-19.2 a 4.12,4.12 0 0 1 3.2,-1.4 h 13.7 c 1,0 1.3,1.1 0.4,1.9 l -25.7,24.1 17.6,24.7 a 1.17,1.17 0 0 1 -1,1.9 h -12.2 a 2.91,2.91 0 0 1 -2.9,-1.4 z"
     id="path52"
     inkscape:connector-curvature="0"
     style="fill:#15443b" />
  <path
     class="cls-1"
     d="m 645.8,135.9 c -7.4,0 -9.1,1.3 -10.2,7.5 l -5.1,28.8 a 23.1,23.1 0 0 0 -0.4,3.2 c 0,3.5 2,4.3 7.9,4.3 h 26.5 c 3.4,0 5.1,-1.5 5.6,-4.6 l 1.6,-8.6 h -17.2 c -1.5,0 -2.1,-0.8 -1.9,-2.1 l 1.5,-8.5 a 2.51,2.51 0 0 1 2.6,-2.2 h 30.7 c 1.5,0 2.1,0.8 1.9,2.2 l -3.8,21.3 c -2,11.5 -4,15.6 -19,15.6 h -39 c -9.7,0 -14.4,-3.6 -14.4,-11.5 a 24.22,24.22 0 0 1 0.4,-4.5 l 6.7,-38 c 1.9,-11 5.2,-16 19.6,-16 h 39 c 9.9,0 14.1,2.8 14.1,10.3 a 26.16,26.16 0 0 1 -0.5,5.3 l -0.9,4.6 a 2.5,2.5 0 0 1 -2.6,2.2 h -11.2 c -1.5,0 -2.2,-0.8 -1.9,-2.2 l 0.5,-2.5 a 5.28,5.28 0 0 0 0.1,-1.2 c 0,-2.3 -1.3,-3.4 -4.1,-3.4 z"
     id="path54"
     inkscape:connector-curvature="0"
     style="fill:#15443b" />
  <path
     class="cls-1"
     d="m 707.5,120.7 a 2.36,2.36 0 0 1 2.4,-1.9 h 10.7 c 1.3,0 1.9,0.7 1.6,1.9 l -10,56.8 a 3.75,3.75 0 0 0 -0.1,1 c 0,1.7 0.9,2.4 3.3,2.4 h 2.4 c 1.3,0 1.9,0.6 1.7,1.9 l -1.4,8.1 a 2.13,2.13 0 0 1 -2.3,1.9 h -7.4 c -8.1,0 -11.7,-2.6 -11.7,-8.9 a 20,20 0 0 1 0.4,-4 z"
     id="path56"
     inkscape:connector-curvature="0"
     style="fill:#15443b" />
  <path
     class="cls-1"
     d="m 784.1,178.5 c -1.8,9.9 -3.9,14.3 -17.4,14.3 h -26 c -8.8,0 -12.8,-3.1 -12.8,-10 a 22.92,22.92 0 0 1 0.4,-4.3 l 4.2,-24 c 1.7,-9.9 4,-14.3 17.4,-14.3 h 26 c 8.8,0 12.8,3.1 12.8,10 a 22.92,22.92 0 0 1 -0.4,4.3 z m -29.2,-26.4 c -6.2,0 -7.5,1 -8.5,6.2 l -2.8,16.4 a 16.74,16.74 0 0 0 -0.3,2.8 c 0,2.8 1.5,3.4 6.5,3.4 h 11.9 c 6.2,0 7.5,-1 8.3,-6.2 l 2.9,-16.4 a 16.74,16.74 0 0 0 0.3,-2.8 c 0,-2.8 -1.6,-3.4 -6.4,-3.4 z"
     id="path58"
     inkscape:connector-curvature="0"
     style="fill:#15443b" />
  <path
     class="cls-1"
     d="m 806.6,120.7 a 2.17,2.17 0 0 1 2.4,-1.9 h 10.6 c 1.4,0 1.9,0.7 1.7,1.9 l -4.5,25.4 c 2.6,-3.9 7,-5.9 14.7,-5.9 H 843 c 8.7,0 12.8,3.1 12.8,10 a 22.92,22.92 0 0 1 -0.4,4.3 l -4.2,24 c -1.8,9.9 -4,14.3 -17.4,14.3 h -12.3 c -8,0 -12.2,-3 -13,-8.9 l -1.2,7 a 2.17,2.17 0 0 1 -2.4,1.9 H 796 c -1.4,0 -2,-0.7 -1.8,-1.9 z m 18.4,31.4 c -6.7,0 -9.7,2.7 -10.7,8.2 l -2.2,12.4 a 10.14,10.14 0 0 0 -0.2,2.4 c 0,3.9 2.3,5.8 8,5.8 h 8.9 c 6.2,0 7.5,-1 8.3,-6.2 l 2.9,-16.4 a 16.74,16.74 0 0 0 0.3,-2.8 c 0,-2.8 -1.6,-3.4 -6.4,-3.4 z"
     id="path60"
     inkscape:connector-curvature="0"
     style="fill:#15443b" />
  <path
     class="cls-1"
     d="m 915,178.8 c 0,0.2 -0.1,0.4 -0.1,0.6 0,1 0.6,1.5 1.9,1.5 h 0.6 c 1.3,0 1.9,0.6 1.7,1.9 l -1.4,8.1 a 2.13,2.13 0 0 1 -2.3,1.9 h -6.9 c -5.6,0 -8.1,-2.2 -8.1,-6.3 v -1.3 c -2.5,5 -7,7.6 -15.7,7.6 h -12.4 c -8.3,0 -11.9,-2.5 -11.9,-9 a 23.68,23.68 0 0 1 0.4,-4.3 l 0.8,-4.7 c 1.8,-10.3 3.2,-13.3 16.1,-13.3 h 25.7 l 0.6,-3.3 a 13.81,13.81 0 0 0 0.3,-2.6 c 0,-2.9 -1.7,-3.6 -6.6,-3.6 h -12.4 c -2.5,0 -3.8,0.8 -4.2,3 a 2.17,2.17 0 0 1 -2.4,2 h -10.2 c -1.3,0 -1.9,-0.7 -1.7,-2 l 0.3,-1.4 c 1.6,-9.4 3.5,-13.4 16.3,-13.4 h 23.5 c 8.7,0 12.8,3.1 12.8,10.1 a 21.94,21.94 0 0 1 -0.4,4.2 z m -24.3,2.2 c 6.7,0 9.7,-2.6 10.7,-8.2 l 0.2,-1.6 H 881 c -2.7,0 -4.2,1 -4.7,3.6 l -0.4,2.6 a 4.48,4.48 0 0 0 -0.1,1.1 c 0,1.8 1.1,2.5 3.5,2.5 z"
     id="path62"
     inkscape:connector-curvature="0"
     style="fill:#15443b" />
  <path
     class="cls-1"
     d="m 938.6,120.7 a 2.36,2.36 0 0 1 2.4,-1.9 h 10.7 c 1.3,0 1.9,0.7 1.6,1.9 l -10,56.8 a 3.75,3.75 0 0 0 -0.1,1 c 0,1.7 0.9,2.4 3.3,2.4 h 2.4 c 1.3,0 1.9,0.6 1.7,1.9 l -1.4,8.1 a 2.13,2.13 0 0 1 -2.3,1.9 h -7.4 c -8.1,0 -11.7,-2.6 -11.7,-8.9 a 20,20 0 0 1 0.4,-4 z"
     id="path64"
     inkscape:connector-curvature="0"
     style="fill:#15443b" />
  <path
     class="cls-2"
     d="M 240.67,406.96 V 355.3 h -11 c -4.3,0 -6.66,-2.36 -6.66,-6.66 v -0.77 c 0,-4.29 2.36,-6.66 6.66,-6.66 h 37.71 c 4.3,0 6.66,2.37 6.66,6.66 v 0.77 c 0,4.3 -2.36,6.66 -6.66,6.66 h -10.92 v 51.66 c 0,4.29 -2.37,6.66 -6.66,6.66 h -2.47 c -4.33,0 -6.66,-2.37 -6.66,-6.66 z"
     id="path66"
     inkscape:connector-curvature="0"
     style="fill:#ffffff" />
  <path
     class="cls-2"
     d="m 277.3,377.52 c 0,-25.8 16.23,-37 34.43,-37 17.9,0 34.31,11.19 34.31,37 0,26.3 -16.31,37 -34.51,37 -18.2,0 -34.23,-10.7 -34.23,-37 z m 53,0 c 0,-14.54 -7.41,-23 -18.58,-23 -11.48,0 -18.82,8.37 -18.82,23 0,15 7.14,23.15 18.68,23.15 11.33,-0.04 18.67,-8.18 18.67,-23.19 z"
     id="path68"
     inkscape:connector-curvature="0"
     style="fill:#ffffff" />
  <path
     class="cls-2"
     d="m 407.33,413.62 h -3 c -3.73,0 -5.94,-1.7 -7.8,-4.86 L 386,390.44 c -1.1,0 -2.24,0.07 -3.41,0.07 h -8.34 v 16.45 c 0,4.29 -2.37,6.66 -6.66,6.66 H 365 c -4.29,0 -6.66,-2.37 -6.66,-6.66 v -59.09 c 0,-4.29 2.37,-6.66 6.66,-6.66 h 17.9 c 23.46,0 31.67,7.83 31.67,24.34 0,10.44 -4.28,18.07 -13.8,22 l 11.13,18.13 c 3.1,5.13 1.76,7.94 -4.57,7.94 z m -8.69,-47 c 0,-9 -5,-12.08 -16.15,-12.08 h -8.34 v 24.06 h 8.34 c 11.15,-0.01 16.15,-2.94 16.15,-11.99 z"
     id="path70"
     inkscape:connector-curvature="0"
     style="fill:#ffffff" />
  <path
     class="cls-2"
     d="m 424.1,377.52 c 0,-25.8 16.23,-37 34.43,-37 17.9,0 34.3,11.19 34.3,37 0,26.3 -16.3,37 -34.5,37 -18.2,0 -34.23,-10.7 -34.23,-37 z m 52.95,0 c 0,-14.54 -7.41,-23 -18.58,-23 -11.48,0 -18.82,8.37 -18.82,23 0,15 7.14,23.15 18.68,23.15 11.38,-0.04 18.72,-8.18 18.72,-23.19 z"
     id="path72"
     inkscape:connector-curvature="0"
     style="fill:#ffffff" />
  <path
     class="cls-2"
     d="m 511.79,413.62 c -4.3,0 -6.66,-2.37 -6.66,-6.66 v -59.09 c 0,-4.29 2.36,-6.66 6.66,-6.66 h 3.56 c 3.63,0 6,1.3 8,4.47 l 28.33,43.13 v -40.94 c 0,-4.29 2.36,-6.66 6.66,-6.66 h 2.46 c 4.3,0 6.66,2.37 6.66,6.66 v 59.09 c 0,4.29 -2.36,6.66 -6.66,6.66 h -3.43 a 8.89,8.89 0 0 1 -8,-4.46 L 521,365.85 v 41.11 c 0,4.29 -2.37,6.66 -6.66,6.66 z"
     id="path74"
     inkscape:connector-curvature="0"
     style="fill:#ffffff" />
  <path
     class="cls-2"
     d="M 595.27,406.96 V 355.3 h -11 c -4.3,0 -6.66,-2.36 -6.66,-6.66 v -0.77 c 0,-4.29 2.36,-6.66 6.66,-6.66 H 622 c 4.3,0 6.66,2.37 6.66,6.66 v 0.77 c 0,4.3 -2.36,6.66 -6.66,6.66 h -10.92 v 51.66 c 0,4.29 -2.36,6.66 -6.66,6.66 h -2.46 c -4.32,0 -6.69,-2.37 -6.69,-6.66 z"
     id="path76"
     inkscape:connector-curvature="0"
     style="fill:#ffffff" />
  <path
     class="cls-2"
     d="m 631.89,377.52 c 0,-25.8 16.24,-37 34.44,-37 17.9,0 34.3,11.19 34.3,37 0,26.3 -16.3,37 -34.5,37 -18.2,0 -34.24,-10.7 -34.24,-37 z m 53,0 c 0,-14.54 -7.41,-23 -18.59,-23 -11.47,0 -18.81,8.37 -18.81,23 0,15 7.14,23.15 18.68,23.15 11.34,-0.04 18.68,-8.18 18.68,-23.19 z"
     id="path78"
     inkscape:connector-curvature="0"
     style="fill:#ffffff" />
  <path
     class="cls-2"
     d="m 237.35,533.62 c -4.3,0 -6.67,-2.37 -6.67,-6.66 v -59.09 c 0,-4.29 2.37,-6.66 6.67,-6.66 h 3.56 c 3.63,0 6,1.3 8,4.47 l 28.33,43.13 v -40.94 c 0,-4.29 2.37,-6.66 6.66,-6.66 h 2.47 c 4.29,0 6.66,2.37 6.66,6.66 v 59.09 c 0,4.29 -2.37,6.66 -6.66,6.66 H 283 a 8.91,8.91 0 0 1 -8,-4.46 l -28.5,-43.31 v 41.11 c 0,4.29 -2.36,6.66 -6.66,6.66 z"
     id="path80"
     inkscape:connector-curvature="0"
     style="fill:#ffffff" />
  <path
     class="cls-2"
     d="m 304.88,505.02 c 0,-20.6 14.64,-29.53 29.57,-29.53 14.93,0 29.55,8.93 29.55,29.53 0,20.8 -14.56,29.66 -29.56,29.66 -15,0 -29.56,-8.86 -29.56,-29.66 z m 44,0 c 0,-10.7 -5.94,-17.11 -14.44,-17.11 -8.5,0 -14.44,6.29 -14.44,17.07 0,10.78 5.94,17.22 14.48,17.22 8.54,0 14.38,-6.37 14.38,-17.22 z"
     id="path82"
     inkscape:connector-curvature="0"
     style="fill:#ffffff" />
  <path
     class="cls-2"
     d="m 388.47,528.53 -18.68,-44.4 c -1.92,-4.55 0.19,-7.68 5.05,-7.68 h 2.6 c 3.83,0 6.27,1.78 7.64,5.37 l 13.27,34.72 13.23,-34.72 c 1.37,-3.59 3.81,-5.37 7.64,-5.37 h 2.6 c 5,0 7.07,3.17 5.15,7.71 l -18.79,44.39 a 7.62,7.62 0 0 1 -7.67,5.14 h -4.26 a 7.72,7.72 0 0 1 -7.78,-5.16 z"
     id="path84"
     inkscape:connector-curvature="0"
     style="fill:#ffffff" />
  <path
     class="cls-2"
     d="M 470.42,526.96 V 475.3 H 466 c -4.11,0 -6.39,-2.38 -6.39,-6.66 v -0.77 c 0,-4.29 2.36,-6.66 6.66,-6.66 h 13.3 c 4.3,0 6.66,2.37 6.66,6.66 v 59.09 c 0,4.29 -2.36,6.66 -6.66,6.66 h -2.46 c -4.33,0 -6.69,-2.37 -6.69,-6.66 z"
     id="path86"
     inkscape:connector-curvature="0"
     style="fill:#ffffff" />
  <path
     class="cls-2"
     d="m 499,520.98 c -2.3,-3.79 -1.43,-7.26 4.2,-8.22 l 1.42,-0.25 c 3.64,-0.65 5.65,0.31 8.2,2.93 4.15,4.28 8,6 14.08,6 8,0 13.12,-3.85 13.12,-9.9 0,-6.32 -4.09,-8.9 -14.12,-8.9 h -2 c -4,0 -5.89,-2 -5.89,-5.57 0,-3.57 1.8,-5.56 5.45,-5.56 h 1.75 c 9,0 13.61,-2.93 13.61,-8.61 0,-6 -4.34,-9.34 -12.13,-9.34 a 16.42,16.42 0 0 0 -12.3,4.91 c -2.75,2.54 -4.83,3.51 -8.39,3.12 l -1.16,-0.12 c -5.2,-0.56 -6.44,-4.25 -4.2,-8.23 4.46,-8 15.19,-12.8 26.3,-12.8 16.63,0 27.63,7.93 27.63,20.43 0,8.21 -4.41,14.14 -12.7,16.2 9,1.67 14.1,7.76 14.1,16.67 0,12.46 -12.24,20.93 -28.85,20.93 -11.8,0.01 -22.75,-4.81 -28.12,-13.69 z"
     id="path88"
     inkscape:connector-curvature="0"
     style="fill:#ffffff" />
  <path
     class="cls-2"
     d="m 564.35,503.2 c 0,-4 2.36,-6.2 6.66,-6.2 h 18.51 c 4.29,0 6.66,2.2 6.66,6.2 0,4 -2.37,6.23 -6.66,6.23 H 571 c -4.29,0.02 -6.65,-2.23 -6.65,-6.23 z"
     id="path90"
     inkscape:connector-curvature="0"
     style="fill:#ffffff" />
  <path
     class="cls-2"
     d="M 612.71,526.96 V 475.3 h -4.44 c -4.11,0 -6.39,-2.38 -6.39,-6.66 v -0.77 c 0,-4.29 2.36,-6.66 6.66,-6.66 h 13.3 c 4.29,0 6.66,2.37 6.66,6.66 v 59.09 c 0,4.29 -2.37,6.66 -6.66,6.66 h -2.47 c -4.29,0 -6.66,-2.37 -6.66,-6.66 z"
     id="path92"
     inkscape:connector-curvature="0"
     style="fill:#ffffff" />
  <path
     class="cls-2"
     d="m 669.45,534.55 c -12.35,0 -22.6,-6 -27,-13.58 -2.35,-4 -0.16,-7 4.29,-7.64 l 1.22,-0.18 c 4.24,-0.64 5.84,0.87 8.1,2.9 3.74,3.37 7.51,5.15 12.8,5.15 8.57,0 14.75,-5.3 14.75,-13.35 0,-7.8 -4.65,-12.64 -13.87,-12.64 -4,0 -7.44,1.21 -11.63,4.2 a 9.7,9.7 0 0 1 -7.86,2.19 l -1.33,-0.18 c -4.34,-0.59 -6.36,-3 -5.58,-7.63 l 4.46,-26.55 c 0.69,-4.12 3.16,-6 7.19,-6 h 32.91 c 4.3,0 6.66,2.36 6.66,6.66 v 0.66 c 0,4.3 -2.36,6.66 -6.66,6.66 h -27 l -2.77,14 a 26.76,26.76 0 0 1 14.78,-4.41 c 15.83,0 25.87,9.21 25.87,23.84 0,15.5 -12.62,25.9 -29.33,25.9 z"
     id="path94"
     inkscape:connector-curvature="0"
     style="fill:#ffffff" />
  <line
     class="cls-3"
     x1="0"
     y1="272.20001"
     x2="969"
     y2="272.20001"
     id="line96"
     style="fill:none;stroke:#346375;stroke-width:10px;stroke-miterlimit:10" />
</svg>
