<svg id="LOGO" xmlns="http://www.w3.org/2000/svg" viewBox="0 0 1001 313.3"><defs><style>.cls-1{fill:none;stroke:#fff;stroke-miterlimit:10;opacity:0;}</style></defs><title>Synaptive_logo_RGB_black</title><rect class="cls-1" x="0.5" y="0.5" width="1000" height="312.3"/><path d="M796.02285,209.1416,835.603,107.42847H812.83759l-19.47945,55.16185c-4.923,13.73908-8.40737,23.78826-8.40737,23.78826h-.20553s-3.51272-10.20273-8.6129-23.78826L756.445,107.42847H733.47882L773.46531,209.1416Z" transform="translate(0.5 0.5)"/><path d="M690.81853,80.97506a12.91935,12.91935,0,1,0,12.976-12.91935,12.61486,12.61486,0,0,0-12.976,12.91935" transform="translate(0.5 0.5)"/><rect x="693.36924" y="107.92751" width="21.53225" height="101.71313"/><path d="M620.99442,177.151c0,15.99507,1.02521,20.71257,6.56241,26.864,5.53719,5.5372,13.12488,7.17663,22.352,7.17663a74.69125,74.69125,0,0,0,17.2258-1.84494v-17.84a44.0094,44.0094,0,0,1-9.84127,1.02523c-5.74273,0-8.82081-.20552-11.89652-2.667s-2.87017-6.7656-2.87017-18.45657V124.85933h25.63317V107.428H642.52668V80.76954H620.99442V107.428H599.155v17.43134h21.8394Z" transform="translate(0.5 0.5)"/><path d="M305.08531,133.88186c2.667-3.69225,12.50832-10.04682,21.32676-10.04682,13.9446,0,21.53225,7.79084,21.53225,21.941v63.36607h21.53229V143.72552c0-25.43005-13.9446-39.16912-37.73288-39.16912-13.33038,0-24.81349,7.9987-28.70891,12.30517v-9.43263H283.553V209.14207h21.53229Z" transform="translate(0.5 0.5)"/><path d="M189.58135,242.97644h21.73779l56.3926-135.54821H244.95106l-20.507,54.75316c-4.923,13.53356-7.38452,19.07077-7.38452,19.07077H216.854s-1.98906-5.19-7.17428-19.07077l-21.32912-54.75316h-22.352L206.193,203.19311Z" transform="translate(0.5 0.5)"/><path d="M93.02038,106.19794c0-10.45785,9.02158-18.25105,23.7859-18.25105,13.74144,0,27.58682,7.41759,33.84217,14.03909l-.00473-24.08591c-6.35692-4.7175-21.12359-9.84366-35.27136-9.84366-26.24977,0-44.704,17.01795-44.704,37.52735,0,21.12122,14.56116,31.7846,30.55385,37.31945l15.38088,5.53721c13.12252,4.7175,21.73779,10.04918,21.73779,22.5575,0,12.51069-9.84366,21.94332-27.8892,21.94332-16.64706,0-32.44842-8.81607-39.78569-17.0392l.00237,24.27962c8.0625,7.16247,22.25041,12.65242,39.98885,12.65242,29.11759,0,50.03331-17.22582,50.03331-42.859,0-23.79062-16.19823-34.043-31.57674-39.58017l-18.25342-6.56008c-10.86653-3.89778-17.84-7.7932-17.84-17.63687" transform="translate(0.5 0.5)"/><path d="M398.7248,135.47216c4.51436-5.64351,18.25105-12.04768,30.34834-12.04768,13.7391,0,22.763,5.94588,22.763,19.27394v5.74273c-3.2812-1.43628-11.07443-3.48675-20.30151-3.48675-23.7859,0-43.67876,12.09965-43.67876,34.043,0,20.7102,16.20059,33.01536,36.70525,33.01536,15.17538,0,25.43009-6.56244,29.32548-11.07442v8.20423h19.48183V140.6503c0-23.99378-17.63687-36.09343-42.03933-36.09343-15.173,0-28.70891,5.94824-32.60434,8.81843Zm36.50214,25.88834c9.02155,0,14.35563,1.6418,16.60924,3.07571v20.71256a29.7949,29.7949,0,0,1-21.73779,9.024c-11.27758,0-20.507-4.923-20.507-15.79191,0-10.86653,10.87127-17.02031,25.63559-17.02031" transform="translate(0.5 0.5)"/><path d="M912.93236,149.67118c-.61422-15.57931-9.43027-26.44348-25.0072-26.44348-15.37378,0-25.41827,12.5036-27.06,26.44348Zm-52.06721,17.42424c.81968,14.75959,12.50591,25.82693,33.209,25.82693,11.47839,0,26.66314-3.62848,35.35642-13.70128v21.615c-5.07891,4.98443-19.36843,11.15237-36.7927,11.15237-31.36177,0-53.298-19.68024-53.298-53.29562,0-31.36649,21.73072-54.12008,48.58526-54.12008,28.90259,0,46.32686,21.52519,46.32686,55.14295,0,1.84494-.17244,4.98206-.411,7.37979Z" transform="translate(0.5 0.5)"/><path d="M542.13568,104.5564c-12.70441,0-24.152,6.36633-29.03021,10.3988v-7.52631H493.625V242.99365l21.57587-.01654v-40.108c5.25635,4.81982,14.908,9.14313,26.93481,9.14313,26.15527,0,49.9884-21.9433,49.9884-54.13892C592.12408,126.091,569.58075,104.5564,542.13568,104.5564ZM538.78363,192.736c-10.45557,0-19.83148-5.2254-23.62769-10.22162l-.04016-49.69788c4.05609-4.05609,13.373-8.98145,23.82843-8.98145,20.50708,0,31.44208,13.73907,31.44208,34.24377C570.38629,178.38031,558.67645,192.736,538.78363,192.736Z" transform="translate(0.5 0.5)"/></svg>