<svg id="Layer_1" data-name="Layer 1" xmlns="http://www.w3.org/2000/svg" viewBox="0 0 1920 1080"><defs><style>.cls-1{fill:#15443b;}.cls-2{fill:#fff;}.cls-3{fill:none;stroke:#346375;stroke-miterlimit:10;stroke-width:10px;}</style></defs><title>Artboard 1</title><path class="cls-1" d="M558.29,378.21c0-22.1,13.94-36.89,34.41-36.89,12.9,0,22.35,3.82,27.8,12.38,2.58,4,.89,7-3.76,8.1l-2.28.54c-3.59.85-5.93-.33-8.19-2.6a17.31,17.31,0,0,0-13.11-5.21c-11.44,0-19,9.4-19,23.84,0,14.65,7.3,23.72,18.91,23.72,9.95,0,16.49-5.67,17.16-16.59H598.19c-4,0-6.29-2.2-6.29-6.13v-.1c0-3.83,2.43-6,6.66-6h21.38c4.23,0,6.72,1.23,6.72,4.73v1.47c0,22.33-13.06,35.83-34.26,35.83C571.63,415.34,558.29,400.81,558.29,378.21Z"/><path class="cls-1" d="M635.93,386c0-17.6,12-29.53,29.33-29.53,16.63,0,27.26,10.2,28.3,26.33.29,4.43-2.07,6.66-6.66,6.66H651.11c.27,9.38,6,14.81,15.31,14.81a17,17,0,0,0,11.82-4.09c2.49-2.05,4-3.41,7.48-2.57l1.38.33c4.56,1.11,5.33,3.66,2.46,7.29-4.85,6.61-13,10.3-23.83,10.3C647.69,415.54,635.93,403.94,635.93,386Zm43.61-6.47c-.6-7.64-5.81-12.51-13.92-12.51-7.77,0-13.31,4.34-14.24,12.51Z"/><path class="cls-1" d="M705.39,391.81V368.9H703c-3.6,0-5.59-2.2-5.59-5.8s1.86-5.69,5.12-5.69h2.91V352.8c0-4,1.86-6.06,6.2-7l1.77-.38c5.1-1.09,7.32.92,7.32,5.69v6.29h9c4.63,0,6.66,2,6.66,5.69s-2,5.8-6.66,5.8h-9v21.54c0,9.46,2.76,12.89,9.86,13.15,3.6.12,5.92,1.7,6.11,5.14.21,3.75-1.5,6.19-5.73,6.61a28.48,28.48,0,0,1-2.86.14C712.53,415.48,705.39,409.24,705.39,391.81Z"/><path class="cls-1" d="M823.22,414.61h-3c-3.73,0-5.93-1.7-7.79-4.86l-10.58-18.32c-1.1.05-2.23.07-3.41.07h-8.34V408c0,4.3-2.36,6.66-6.66,6.66h-2.6c-4.29,0-6.66-2.36-6.66-6.66V348.87c0-4.3,2.37-6.66,6.66-6.66h17.9c23.47,0,31.67,7.82,31.67,24.33,0,10.44-4.28,18.07-13.79,22l11.12,18.13C830.94,411.8,829.55,414.61,823.22,414.61Zm-8.68-47c0-9-5-12.07-16.16-12.07H790v24.05h8.34C809.53,379.58,814.54,376.65,814.54,367.6Z"/><path class="cls-1" d="M837.72,386c0-17.6,12-29.53,29.34-29.53,16.63,0,27.26,10.2,28.3,26.33.29,4.43-2.07,6.66-6.66,6.66H852.91c.26,9.38,6,14.81,15.31,14.81A17,17,0,0,0,880,400.19c2.49-2.05,4-3.41,7.48-2.57l1.37.33c4.57,1.11,5.34,3.66,2.47,7.29-4.86,6.61-13.05,10.3-23.84,10.3C849.49,415.54,837.72,403.94,837.72,386Zm43.61-6.47c-.6-7.64-5.8-12.51-13.91-12.51-7.77,0-13.31,4.34-14.25,12.51Z"/><path class="cls-1" d="M904.22,386c0-19.21,10.74-29.53,25-29.53,8,0,15.64,4,18.6,11v-4.2c0-3.7,2.44-5.83,6.67-5.83h1.86c4.3,0,6.66,2.36,6.66,6.66v43.78c0,4.3-2.36,6.66-6.66,6.66H954.5c-4.2,0-6.67-2.1-6.67-5.7V404.9c-2.9,6.81-10.6,10.77-18.54,10.77C915.06,415.67,904.22,405.24,904.22,386Zm44.08,0c0-10.54-5.87-17.11-14.51-17.11S919.37,375.4,919.37,386s5.84,17.22,14.55,17.22S948.3,396.62,948.3,386Z"/><path class="cls-1" d="M974.12,386c0-19.21,10.74-29.53,25-29.53,8,0,15.7,4,18.6,11v-22c0-4.3,2.37-6.67,6.67-6.67h1.86c4.3,0,6.66,2.37,6.66,6.67v62.38c0,4.3-2.36,6.66-6.66,6.66h-1.86c-4.2,0-6.67-2.1-6.67-5.7V404.9c-2.9,6.81-10.6,10.77-18.54,10.77C985,415.67,974.12,405.24,974.12,386Zm44.08,0c0-10.54-5.8-17.11-14.51-17.11-8.55,0-14.42,6.54-14.42,17.11s5.84,17.22,14.55,17.22S1018.2,396.62,1018.2,386Z"/><path class="cls-1" d="M1058.1,426.13l5.08-11.79-20.57-49.23c-1.9-4.56.23-7.67,5.09-7.67h2.7c3.83,0,6.26,1.82,7.61,5.41L1071.3,398l13.26-35.14c1.36-3.59,3.79-5.41,7.62-5.41h2.56c5,0,7.14,3.13,5.26,7.67L1074,428c-1.49,3.59-4,5.14-7.79,5.14h-2.8C1058.47,433.11,1056.32,430.27,1058.1,426.13Z"/><path class="cls-1" d="M1147.34,414.61c-4.29,0-6.66-2.36-6.66-6.66V368.86h-2.4c-3.68,0-6-2.18-6-5.79s2.39-5.7,6-5.7h2.39v-2c0-13,7.33-19.57,21.73-19.57,1.47,0,3.11.07,4.6.22,4.54.44,6.34,2.58,5.83,6.08s-2.06,5.13-5.36,5c-.91,0-1.52-.07-2.34-.07-6,0-9.11,2.7-9.11,8.48v1.86h8.51c4.3,0,6.67,2,6.67,5.7s-2.37,5.79-6.67,5.79H1156V408c0,4.3-2.36,6.66-6.66,6.66Z"/><path class="cls-1" d="M1174.82,386c0-20.6,14.63-29.53,29.56-29.53S1234,365.41,1234,386c0,20.8-14.57,29.66-29.57,29.66S1174.82,406.81,1174.82,386Zm44,0c0-10.7-5.94-17.11-14.45-17.11s-14.42,6.34-14.42,17.11,5.94,17.22,14.49,17.22S1218.8,396.82,1218.8,386Z"/><path class="cls-1" d="M1278.48,363.69l-.13,1.11c-.46,4.12-2.83,5.31-7,6-7.56,1.29-11.48,6.34-11.48,16.81V408c0,4.29-2.37,6.66-6.66,6.66h-1.86c-4.3,0-6.67-2.37-6.67-6.66V364.07c0-4.3,2.37-6.67,6.67-6.67h1.86c4.29,0,6.66,2,6.66,6.13v2.54a13.62,13.62,0,0,1,13.2-9.25C1277.17,356.82,1279,359.37,1278.48,363.69Z"/><path class="cls-1" d="M1274.91,407.68c0-5,3.63-7.66,8.66-7.66,4.67,0,8.66,2.7,8.66,7.66s-4,7.66-8.66,7.66C1278.54,415.34,1274.91,412.68,1274.91,407.68Z"/><path class="cls-1" d="M1300.21,407.68c0-5,3.63-7.66,8.66-7.66,4.67,0,8.66,2.7,8.66,7.66s-4,7.66-8.66,7.66C1303.84,415.34,1300.21,412.68,1300.21,407.68Z"/><path class="cls-1" d="M1325.51,407.68c0-5,3.63-7.66,8.66-7.66,4.66,0,8.66,2.7,8.66,7.66s-4,7.66-8.66,7.66C1329.14,415.34,1325.51,412.68,1325.51,407.68Z"/><path class="cls-1" d="M548.31,458.6c9.5,0,14,3.5,14,11.1a24.22,24.22,0,0,1-.4,4.5l-.7,4c-1.6,8.9-3.7,13.7-12.1,15.1,5.6,1.2,8.2,4.6,8.2,10.4a27.1,27.1,0,0,1-.4,4.7l-.8,4.6c-1.9,10.7-4.7,15.6-19,15.6H484c-1.5,0-2.1-.8-1.9-2.1l11.6-65.8a2.44,2.44,0,0,1,2.6-2.1ZM503,499.7l-2.8,15.8h32c5.7,0,7.5-1.4,8.4-6.4l.5-3a10.57,10.57,0,0,0,.2-2.4c0-3.1-1.7-4-6.3-4Zm2.3-12.8h30.9c5.7,0,7.5-1.5,8.4-6.4l.4-2.4a12.89,12.89,0,0,0,.3-2.5c0-3-1.7-3.9-6.3-3.9H508Z"/><path class="cls-1" d="M598.51,487.9c-8.8,0-13.5,4.5-14.8,12.1L579,526.7a2.07,2.07,0,0,1-2.3,1.9H566.1c-1.39,0-2-.7-1.8-1.9l8.61-48.8a2.17,2.17,0,0,1,2.4-1.9h8.9c1.3,0,1.9.7,1.7,1.9l-1.3,7c2.5-5.9,7.1-8.9,16.9-8.9h3.6c1.3,0,1.9.7,1.7,1.9l-1.4,8.1a2.15,2.15,0,0,1-2.4,1.9Z"/><path class="cls-1" d="M659.91,514.6c0,.2-.1.4-.1.6,0,1,.6,1.5,1.9,1.5h.6c1.3,0,1.9.6,1.7,1.9l-1.4,8.1a2.13,2.13,0,0,1-2.3,1.9h-6.9c-5.6,0-8.1-2.2-8.1-6.3V521c-2.5,5-7,7.6-15.7,7.6h-12.4c-8.31,0-11.91-2.5-11.91-9a23.68,23.68,0,0,1,.4-4.3l.8-4.7c1.8-10.3,3.2-13.3,16.11-13.3h25.7l.6-3.3a13.81,13.81,0,0,0,.3-2.6c0-2.9-1.7-3.6-6.6-3.6h-12.4c-2.5,0-3.8.8-4.2,3a2.17,2.17,0,0,1-2.4,2H613.4c-1.3,0-1.9-.7-1.7-2l.3-1.4c1.6-9.4,3.5-13.4,16.31-13.4h23.5c8.7,0,12.8,3.1,12.8,10.1a21.94,21.94,0,0,1-.4,4.2Zm-24.3,2.2c6.7,0,9.7-2.6,10.7-8.2l.2-1.6h-20.6c-2.7,0-4.2,1-4.7,3.6l-.41,2.6a5,5,0,0,0-.09,1.1c0,1.8,1.1,2.5,3.5,2.5Z"/><path class="cls-1" d="M680.6,477.9A2.17,2.17,0,0,1,683,476h10.6c1.4,0,1.9.7,1.7,1.9l-8.6,48.8a2.07,2.07,0,0,1-2.3,1.9H673.8c-1.4,0-2-.7-1.8-1.9Zm3.6-20.1a2.06,2.06,0,0,1,2.3-1.9h10.6c1.4,0,2,.6,1.8,1.9l-1.5,8.2a2.15,2.15,0,0,1-2.4,1.9H684.4c-1.4,0-1.9-.6-1.6-1.9Z"/><path class="cls-1" d="M721,484.2c2.4-5.4,6.9-8.2,15.9-8.2h10.91c8.7,0,12.8,3.1,12.8,10a22.92,22.92,0,0,1-.4,4.3l-6.4,36.4a2.13,2.13,0,0,1-2.3,1.9h-10.6c-1.31,0-2-.7-1.81-1.9l5.71-32.6a17.87,17.87,0,0,0,.3-2.8c0-2.8-1.61-3.4-6.4-3.4H731.2c-6.7,0-9.7,2.7-10.7,8.2l-5.4,30.6a2.07,2.07,0,0,1-2.3,1.9H702.2c-1.4,0-2-.7-1.8-1.9l8.6-48.8a2.17,2.17,0,0,1,2.4-1.9h8.9c1.4,0,2,.7,1.8,1.9Z"/><path class="cls-1" d="M839.21,526.5a2.34,2.34,0,0,1-2.5,2.1h-11.8c-1.4,0-2.1-.8-1.9-2.1l4.8-26.7H788.1l-4.7,26.7a2.44,2.44,0,0,1-2.6,2.1H769.1c-1.5,0-2.1-.8-1.9-2.1l11.6-65.8a2.44,2.44,0,0,1,2.6-2.1h11.7c1.4,0,2.2.8,1.9,2.1l-4.6,26h39.71l4.5-26a2.51,2.51,0,0,1,2.6-2.1H849c1.4,0,2.1.8,1.8,2.1Z"/><path class="cls-1" d="M907,514.6c0,.2-.09.4-.09.6,0,1,.59,1.5,1.9,1.5h.6c1.3,0,1.9.6,1.7,1.9l-1.4,8.1a2.14,2.14,0,0,1-2.3,1.9H900.5c-5.6,0-8.1-2.2-8.1-6.3V521c-2.5,5-7,7.6-15.7,7.6H864.3c-8.3,0-11.9-2.5-11.9-9a23.68,23.68,0,0,1,.4-4.3l.8-4.7c1.8-10.3,3.2-13.3,16.1-13.3h25.7l.6-3.3a13.81,13.81,0,0,0,.3-2.6c0-2.9-1.7-3.6-6.6-3.6H877.3c-2.5,0-3.8.8-4.2,3a2.17,2.17,0,0,1-2.4,2H860.5c-1.3,0-1.9-.7-1.7-2l.3-1.4c1.6-9.4,3.5-13.4,16.3-13.4h23.5c8.71,0,12.81,3.1,12.81,10.1a21.94,21.94,0,0,1-.4,4.2Zm-24.3,2.2c6.7,0,9.7-2.6,10.7-8.2l.2-1.6H873c-2.7,0-4.2,1-4.7,3.6l-.4,2.6a4.48,4.48,0,0,0-.1,1.1c0,1.8,1.1,2.5,3.5,2.5Z"/><path class="cls-1" d="M924.2,490.3c1.7-9.9,4-14.3,17.4-14.3h25.9c8.2,0,12,2.8,12,9.3a21,21,0,0,1-.4,4.1l-.7,3.8a2.13,2.13,0,0,1-2.3,1.9H965.9c-1.4,0-1.9-.7-1.7-1.9l.3-1.9a3.08,3.08,0,0,0,.1-.9c0-1.7-1.2-2.5-3.5-2.5H946.6c-6.2,0-7.5,1-8.5,6.2l-2.8,16.4a16.74,16.74,0,0,0-.3,2.8c0,2.8,1.5,3.4,6.5,3.4H956c2.7,0,4.2-1,4.7-3.4l.3-1.9a2.07,2.07,0,0,1,2.3-1.9h10.2c1.3,0,1.9.7,1.7,1.9l-.6,3.8c-1.7,9.4-3.5,13.4-16.3,13.4H932.4c-8.8,0-12.8-3.1-12.8-10a22.92,22.92,0,0,1,.4-4.3Z"/><path class="cls-1" d="M1010.4,507.8h-8.5l-3.3,18.9a2.07,2.07,0,0,1-2.3,1.9H985.7c-1.4,0-2-.7-1.8-1.9l12.4-70.2a2.17,2.17,0,0,1,2.4-1.9h10.6c1.4,0,1.9.7,1.7,1.9l-7.1,40.1h6.9l20.1-19.2a4.12,4.12,0,0,1,3.2-1.4h13.7c1,0,1.3,1.1.4,1.9L1022.5,502l17.6,24.7a1.17,1.17,0,0,1-1,1.9h-12.2a2.91,2.91,0,0,1-2.9-1.4Z"/><path class="cls-1" d="M1111.8,471.7c-7.4,0-9.1,1.3-10.2,7.5l-5.1,28.8a23.1,23.1,0,0,0-.4,3.2c0,3.5,2,4.3,7.9,4.3h26.5c3.4,0,5.1-1.5,5.6-4.6l1.6-8.6h-17.2c-1.5,0-2.1-.8-1.9-2.1l1.5-8.5a2.51,2.51,0,0,1,2.6-2.2h30.7c1.5,0,2.1.8,1.9,2.2l-3.8,21.3c-2,11.5-4,15.6-19,15.6h-39c-9.7,0-14.4-3.6-14.4-11.5a24.22,24.22,0,0,1,.4-4.5l6.7-38c1.9-11,5.2-16,19.6-16h39c9.9,0,14.1,2.8,14.1,10.3a26.16,26.16,0,0,1-.5,5.3l-.9,4.6a2.5,2.5,0,0,1-2.6,2.2h-11.2c-1.5,0-2.2-.8-1.9-2.2l.5-2.5a5.28,5.28,0,0,0,.1-1.2c0-2.3-1.3-3.4-4.1-3.4Z"/><path class="cls-1" d="M1173.5,456.5a2.36,2.36,0,0,1,2.4-1.9h10.7c1.3,0,1.9.7,1.6,1.9l-10,56.8a3.75,3.75,0,0,0-.1,1c0,1.7.9,2.4,3.3,2.4h2.4c1.3,0,1.9.6,1.7,1.9l-1.4,8.1a2.13,2.13,0,0,1-2.3,1.9h-7.4c-8.1,0-11.7-2.6-11.7-8.9a20,20,0,0,1,.4-4Z"/><path class="cls-1" d="M1250.1,514.3c-1.8,9.9-3.9,14.3-17.4,14.3h-26c-8.8,0-12.8-3.1-12.8-10a22.92,22.92,0,0,1,.4-4.3l4.2-24c1.7-9.9,4-14.3,17.4-14.3h26c8.8,0,12.8,3.1,12.8,10a22.92,22.92,0,0,1-.4,4.3Zm-29.2-26.4c-6.2,0-7.5,1-8.5,6.2l-2.8,16.4a16.74,16.74,0,0,0-.3,2.8c0,2.8,1.5,3.4,6.5,3.4h11.9c6.2,0,7.5-1,8.3-6.2l2.9-16.4a16.74,16.74,0,0,0,.3-2.8c0-2.8-1.6-3.4-6.4-3.4Z"/><path class="cls-1" d="M1272.6,456.5a2.17,2.17,0,0,1,2.4-1.9h10.6c1.4,0,1.9.7,1.7,1.9l-4.5,25.4c2.6-3.9,7-5.9,14.7-5.9H1309c8.7,0,12.8,3.1,12.8,10a22.92,22.92,0,0,1-.4,4.3l-4.2,24c-1.8,9.9-4,14.3-17.4,14.3h-12.3c-8,0-12.2-3-13-8.9l-1.2,7a2.17,2.17,0,0,1-2.4,1.9H1262c-1.4,0-2-.7-1.8-1.9Zm18.4,31.4c-6.7,0-9.7,2.7-10.7,8.2l-2.2,12.4a10.14,10.14,0,0,0-.2,2.4c0,3.9,2.3,5.8,8,5.8h8.9c6.2,0,7.5-1,8.3-6.2l2.9-16.4a16.74,16.74,0,0,0,.3-2.8c0-2.8-1.6-3.4-6.4-3.4Z"/><path class="cls-1" d="M1381,514.6c0,.2-.1.4-.1.6,0,1,.6,1.5,1.9,1.5h.6c1.3,0,1.9.6,1.7,1.9l-1.4,8.1a2.13,2.13,0,0,1-2.3,1.9h-6.9c-5.6,0-8.1-2.2-8.1-6.3V521c-2.5,5-7,7.6-15.7,7.6h-12.4c-8.3,0-11.9-2.5-11.9-9a23.68,23.68,0,0,1,.4-4.3l.8-4.7c1.8-10.3,3.2-13.3,16.1-13.3h25.7l.6-3.3a13.81,13.81,0,0,0,.3-2.6c0-2.9-1.7-3.6-6.6-3.6h-12.4c-2.5,0-3.8.8-4.2,3a2.17,2.17,0,0,1-2.4,2h-10.2c-1.3,0-1.9-.7-1.7-2l.3-1.4c1.6-9.4,3.5-13.4,16.3-13.4h23.5c8.7,0,12.8,3.1,12.8,10.1a21.94,21.94,0,0,1-.4,4.2Zm-24.3,2.2c6.7,0,9.7-2.6,10.7-8.2l.2-1.6H1347c-2.7,0-4.2,1-4.7,3.6l-.4,2.6a4.48,4.48,0,0,0-.1,1.1c0,1.8,1.1,2.5,3.5,2.5Z"/><path class="cls-1" d="M1404.6,456.5a2.36,2.36,0,0,1,2.4-1.9h10.7c1.3,0,1.9.7,1.6,1.9l-10,56.8a3.75,3.75,0,0,0-.1,1c0,1.7.9,2.4,3.3,2.4h2.4c1.3,0,1.9.6,1.7,1.9l-1.4,8.1a2.13,2.13,0,0,1-2.3,1.9h-7.4c-8.1,0-11.7-2.6-11.7-8.9a20,20,0,0,1,.4-4Z"/><path class="cls-2" d="M706.67,742.76V691.1h-11c-4.3,0-6.66-2.36-6.66-6.66v-.77c0-4.29,2.36-6.66,6.66-6.66h37.71c4.3,0,6.66,2.37,6.66,6.66v.77c0,4.3-2.36,6.66-6.66,6.66H722.46v51.66c0,4.29-2.37,6.66-6.66,6.66h-2.47C709,749.42,706.67,747.05,706.67,742.76Z"/><path class="cls-2" d="M743.3,713.32c0-25.8,16.23-37,34.43-37,17.9,0,34.31,11.19,34.31,37,0,26.3-16.31,37-34.51,37S743.3,739.62,743.3,713.32Zm53,0c0-14.54-7.41-23-18.58-23-11.48,0-18.82,8.37-18.82,23,0,15,7.14,23.15,18.68,23.15C788.91,736.43,796.25,728.29,796.25,713.28Z"/><path class="cls-2" d="M873.33,749.42h-3c-3.73,0-5.94-1.7-7.8-4.86L852,726.24c-1.1,0-2.24.07-3.41.07h-8.34v16.45c0,4.29-2.37,6.66-6.66,6.66H831c-4.29,0-6.66-2.37-6.66-6.66V683.67c0-4.29,2.37-6.66,6.66-6.66h17.9c23.46,0,31.67,7.83,31.67,24.34,0,10.44-4.28,18.07-13.8,22l11.13,18.13C881,746.61,879.66,749.42,873.33,749.42Zm-8.69-47c0-9-5-12.08-16.15-12.08h-8.34v24.06h8.34C859.64,714.39,864.64,711.46,864.64,702.41Z"/><path class="cls-2" d="M890.1,713.32c0-25.8,16.23-37,34.43-37,17.9,0,34.3,11.19,34.3,37,0,26.3-16.3,37-34.5,37S890.1,739.62,890.1,713.32Zm52.95,0c0-14.54-7.41-23-18.58-23-11.48,0-18.82,8.37-18.82,23,0,15,7.14,23.15,18.68,23.15C935.71,736.43,943.05,728.29,943.05,713.28Z"/><path class="cls-2" d="M977.79,749.42c-4.3,0-6.66-2.37-6.66-6.66V683.67c0-4.29,2.36-6.66,6.66-6.66h3.56c3.63,0,6,1.3,8,4.47l28.33,43.13V683.67c0-4.29,2.36-6.66,6.66-6.66h2.46c4.3,0,6.66,2.37,6.66,6.66v59.09c0,4.29-2.36,6.66-6.66,6.66h-3.43a8.89,8.89,0,0,1-8-4.46L987,701.65v41.11c0,4.29-2.37,6.66-6.66,6.66Z"/><path class="cls-2" d="M1061.27,742.76V691.1h-11c-4.3,0-6.66-2.36-6.66-6.66v-.77c0-4.29,2.36-6.66,6.66-6.66H1088c4.3,0,6.66,2.37,6.66,6.66v.77c0,4.3-2.36,6.66-6.66,6.66h-10.92v51.66c0,4.29-2.36,6.66-6.66,6.66h-2.46C1063.64,749.42,1061.27,747.05,1061.27,742.76Z"/><path class="cls-2" d="M1097.89,713.32c0-25.8,16.24-37,34.44-37,17.9,0,34.3,11.19,34.3,37,0,26.3-16.3,37-34.5,37S1097.89,739.62,1097.89,713.32Zm53,0c0-14.54-7.41-23-18.59-23-11.47,0-18.81,8.37-18.81,23,0,15,7.14,23.15,18.68,23.15C1143.51,736.43,1150.85,728.29,1150.85,713.28Z"/><path class="cls-2" d="M703.35,869.42c-4.3,0-6.67-2.37-6.67-6.66V803.67c0-4.29,2.37-6.66,6.67-6.66h3.56c3.63,0,6,1.3,8,4.47l28.33,43.13V803.67c0-4.29,2.37-6.66,6.66-6.66h2.47c4.29,0,6.66,2.37,6.66,6.66v59.09c0,4.29-2.37,6.66-6.66,6.66H749a8.91,8.91,0,0,1-8-4.46L712.5,821.65v41.11c0,4.29-2.36,6.66-6.66,6.66Z"/><path class="cls-2" d="M770.88,840.82c0-20.6,14.64-29.53,29.57-29.53S830,820.22,830,840.82c0,20.8-14.56,29.66-29.56,29.66S770.88,861.62,770.88,840.82Zm44,0c0-10.7-5.94-17.11-14.44-17.11S786,830,786,840.78,791.94,858,800.48,858,814.86,851.63,814.86,840.78Z"/><path class="cls-2" d="M854.47,864.33l-18.68-44.4c-1.92-4.55.19-7.68,5.05-7.68h2.6c3.83,0,6.27,1.78,7.64,5.37l13.27,34.72,13.23-34.72c1.37-3.59,3.81-5.37,7.64-5.37h2.6c5,0,7.07,3.17,5.15,7.71l-18.79,44.39a7.62,7.62,0,0,1-7.67,5.14h-4.26A7.72,7.72,0,0,1,854.47,864.33Z"/><path class="cls-2" d="M936.42,862.76V811.1H932c-4.11,0-6.39-2.38-6.39-6.66v-.77c0-4.29,2.36-6.66,6.66-6.66h13.3c4.3,0,6.66,2.37,6.66,6.66v59.09c0,4.29-2.36,6.66-6.66,6.66h-2.46C938.78,869.42,936.42,867.05,936.42,862.76Z"/><path class="cls-2" d="M965,856.78c-2.3-3.79-1.43-7.26,4.2-8.22l1.42-.25c3.64-.65,5.65.31,8.2,2.93,4.15,4.28,8,6,14.08,6,8,0,13.12-3.85,13.12-9.9,0-6.32-4.09-8.9-14.12-8.9h-2c-4,0-5.89-2-5.89-5.57s1.8-5.56,5.45-5.56h1.75c9,0,13.61-2.93,13.61-8.61,0-6-4.34-9.34-12.13-9.34a16.42,16.42,0,0,0-12.3,4.91c-2.75,2.54-4.83,3.51-8.39,3.12l-1.16-.12c-5.2-.56-6.44-4.25-4.2-8.23,4.46-8,15.19-12.8,26.3-12.8,16.63,0,27.63,7.93,27.63,20.43,0,8.21-4.41,14.14-12.7,16.2,9,1.67,14.1,7.76,14.1,16.67,0,12.46-12.24,20.93-28.85,20.93C981.32,870.48,970.37,865.66,965,856.78Z"/><path class="cls-2" d="M1030.35,839c0-4,2.36-6.2,6.66-6.2h18.51c4.29,0,6.66,2.2,6.66,6.2s-2.37,6.23-6.66,6.23H1037C1032.71,845.25,1030.35,843,1030.35,839Z"/><path class="cls-2" d="M1078.71,862.76V811.1h-4.44c-4.11,0-6.39-2.38-6.39-6.66v-.77c0-4.29,2.36-6.66,6.66-6.66h13.3c4.29,0,6.66,2.37,6.66,6.66v59.09c0,4.29-2.37,6.66-6.66,6.66h-2.47C1081.08,869.42,1078.71,867.05,1078.71,862.76Z"/><path class="cls-2" d="M1135.45,870.35c-12.35,0-22.6-6-27-13.58-2.35-4-.16-7,4.29-7.64l1.22-.18c4.24-.64,5.84.87,8.1,2.9,3.74,3.37,7.51,5.15,12.8,5.15,8.57,0,14.75-5.3,14.75-13.35,0-7.8-4.65-12.64-13.87-12.64-4,0-7.44,1.21-11.63,4.2a9.7,9.7,0,0,1-7.86,2.19l-1.33-.18c-4.34-.59-6.36-3-5.58-7.63l4.46-26.55c.69-4.12,3.16-6,7.19-6h32.91c4.3,0,6.66,2.36,6.66,6.66v.66c0,4.3-2.36,6.66-6.66,6.66h-27l-2.77,14a26.76,26.76,0,0,1,14.78-4.41c15.83,0,25.87,9.21,25.87,23.84,0,15.5-12.62,25.9-29.33,25.9Z"/><line class="cls-3" x1="466" y1="608" x2="1435" y2="608"/></svg>